HIERARCHY
ROOT Hips
{
	OFFSET 0.00000 0.00000 0.00000
	CHANNELS 6 Xposition Yposition Zposition Yrotation Zrotation Xrotation 
	JOINT Lumbar
	{
		OFFSET 0 0 0
		CHANNELS 3 Zrotation Xrotation Yrotation
		JOINT Neck
		{
			OFFSET 0.00 0.2701 0.00
			CHANNELS 3 Zrotation Xrotation Yrotation
			End Site
			{
				OFFSET 0.00 0.1379 0.00
			}
		}
		JOINT RightShoulder
		{
			OFFSET 0.0119 0.2289 0.1181
			CHANNELS 3 Zrotation Xrotation Yrotation
			JOINT RightElbow
			{
				OFFSET 0.00 -0.1475 0.00
				CHANNELS 2 Zrotation Yrotation
				JOINT RightWrist
				{
					OFFSET 0.00 -0.1605 0.00
					CHANNELS 2 Zrotation Xrotation
					End Site
					{
						OFFSET 0.0040 -0.1068 0.0006
					}
				}
			}
		}
		JOINT LeftShoulder
		{
			OFFSET 0.0119 0.2289 -0.1181
			CHANNELS 3 Zrotation Xrotation Yrotation
			JOINT LeftElbow
			{
				OFFSET 0.00 -0.1475 0.00
				CHANNELS 2 Zrotation Yrotation
				JOINT LeftWrist
				{
					OFFSET 0.00 -0.1605 0.00
					CHANNELS 2 Zrotation Xrotation
					End Site
					{
						OFFSET 0.0040 -0.1068 -0.0006
					}
				}
			}
		}
	}
	JOINT RightHip
	{
		OFFSET 0.0316 -0.0424 0.0458
		CHANNELS 3 Zrotation Xrotation Yrotation
		JOINT RightKnee
		{
			OFFSET 0.00 -0.2438 0.00
			CHANNELS 1 Zrotation
			JOINT RightAnkle
			{
				OFFSET 0.00 -0.2449 0.00
				CHANNELS 3 Zrotation Xrotation Yrotation
				End Site
				{
					OFFSET 0.1237 -0.0542 0.0051
				}
			}
		}
	}
	JOINT LeftHip
	{
		OFFSET 0.0316 -0.0424 -0.0458
		CHANNELS 3 Zrotation Xrotation Yrotation
		JOINT LeftKnee
		{
			OFFSET 0.00 -0.2438 0.00
			CHANNELS 1 Zrotation
			JOINT LeftAnkle
			{
				OFFSET 0.00 -0.2449 0.00
				CHANNELS 3 Zrotation Xrotation Yrotation
				End Site
				{
					OFFSET 0.1237 -0.0542 -0.0051
				}
			}
		}
	}
}
MOTION
Frames: 13
Frame Time: 0.02
0.00022 0.00024 0.00726 173.34439 -29.47471 -2.35893 46.41674 3.85056 -1.25223 -8.56355 -0.55777 -0.61032 -24.65587 -14.00693 -0.75885 31.90011 93.32478 9.31539 -0.19503 -28.73488 20.05976 -13.31423 47.7 -80.94739 10.31617 2.77203 33.797 -2.26478 -6.50821 -20.52157 -8.37234 -4.54027 -3.12221 33.67912 10.83547 6.20685 -26.2787 -9.14594 5.00613 3.41829
0.0001 6e-05 0.00512 173.20628 -29.70906 -2.36115 46.51327 3.79453 -1.79578 -8.78245 -0.67319 -0.61103 -24.72262 -13.638 -0.86905 32.31792 93.24903 9.17391 -0.17098 -29.10648 19.7009 -12.06756 47.3585 -84.86101 11.37941 2.19561 34.05593 -2.1395 -6.82154 -20.64294 -8.32077 -4.4982 -3.09811 33.88118 10.96051 5.88088 -26.30682 -9.20037 5.02347 3.43387
-2e-05 -0.00011 0.00299 173.06861 -29.9428 -2.36336 46.60924 3.73862 -2.33786 -9.00104 -0.7882 -0.61175 -24.78955 -13.26982 -0.97903 32.7352 93.17303 9.03256 -0.14708 -29.47736 19.34377 -10.82472 47.01879 -88.7576 12.4379 1.62167 34.31416 -2.01418 -7.13386 -20.76395 -8.26933 -4.45629 -3.0741 34.08271 11.08502 5.55349 -26.33478 -9.25501 5.04088 3.4495
-0.00013 -0.00028 0.00086 172.93092 -30.17645 -2.36557 46.70544 3.68275 -2.87978 -9.21932 -0.90327 -0.61246 -24.85614 -12.90194 -1.08888 33.15185 93.09743 8.89146 -0.12311 -29.84789 18.98615 -9.58199 46.67847 -92.65822 13.49757 1.04716 34.57231 -1.88922 -7.44623 -20.88495 -8.21791 -4.41436 -3.05007 34.28416 11.20962 5.22805 -26.3628 -9.30935 5.05819 3.46506
-0.00026 -0.00046 -0.00127 172.79284 -30.41065 -2.36779 46.80227 3.62678 -3.42308 -9.4378 -1.01877 -0.61316 -24.92243 -12.53348 -1.19897 33.56878 93.02229 8.75036 -0.09899 -30.21896 18.62649 -8.33516 46.33609 -96.57811 14.56266 0.46985 34.83113 -1.76446 -7.75961 -21.0063 -8.16636 -4.37228 -3.02597 34.48611 11.33485 4.90517 -26.39103 -9.3633 5.07537 3.48051
-0.00037 -0.00063 -0.00341 172.65605 -30.64341 -2.36997 46.89643 3.57099 -3.96253 -9.65662 -1.13272 -0.61392 -24.99075 -12.16593 -1.30877 33.98678 92.94449 8.60853 -0.07554 -30.5894 18.27464 -7.10061 46.00199 -100.4258 15.6073 -0.097 35.08811 -1.63799 -8.06966 -21.12656 -8.11514 -4.33072 -3.00213 34.68675 11.45787 4.56844 -26.41842 -9.41936 5.09327 3.4965
-0.0005 -0.0008 -0.00553 172.51671 -30.87883 -2.37225 46.99592 3.51489 -4.50917 -9.87445 -1.24968 -0.61455 -25.05482 -11.79688 -1.41883 34.4021 92.87208 8.46827 -0.05075 -30.96075 17.90771 -5.84353 45.65163 -104.41317 16.69154 -0.68408 35.34851 -1.5151 -8.38612 -21.2489 -8.06333 -4.28815 -2.97778 34.88976 11.58505 4.25934 -26.44746 -9.4712 5.10973 3.51143
-0.00061 -0.00098 -0.00767 172.37993 -31.11178 -2.37438 47.09036 3.45911 -5.04913 -10.0933 -1.36385 -0.6153 -25.12295 -11.42936 -1.52903 34.81999 92.79479 8.32666 -0.0272 -31.33116 17.55422 -4.60573 45.31622 -108.27421 17.73999 -1.25286 35.60572 -1.38888 -8.6966 -21.36931 -8.01206 -4.24652 -2.95391 35.09066 11.70868 3.92589 -26.47499 -9.5268 5.12745 3.52728
-0.00072 -0.00115 -0.00983 172.2454 -31.34188 -2.37655 47.17916 3.40355 -5.58137 -10.31313 -1.47471 -0.61622 -25.19557 -11.0629 -1.63795 35.24094 92.71106 8.1829 -0.00514 -31.70106 17.21898 -3.39689 44.99927 -111.97171 18.74198 -1.798 35.85929 -1.2586 -9.00016 -21.48747 -7.96144 -4.20599 -2.9306 35.28877 11.82686 3.55762 -26.50061 -9.58761 5.14701 3.5445
-0.00088 -0.00132 -0.01186 172.09526 -31.58891 -2.3792 47.30199 3.3462 -6.1594 -10.52655 -1.60493 -0.61622 -25.24094 -10.6879 -1.74986 35.64405 92.66293 8.05001 0.02553 -32.07584 16.78421 -2.03763 44.57667 -116.58278 20.00311 -2.47531 36.13459 -1.15166 -9.34469 -21.61891 -7.90705 -4.15898 -2.90399 35.50235 11.97308 3.37444 -26.53704 -9.6203 5.15691 3.55458
-0.00093 -0.0015 -0.01416 171.97977 -31.79982 -2.38034 47.35203 3.293 -6.63989 -10.75394 -1.69409 -0.61813 -25.34466 -10.33254 -1.85826 36.08486 92.54069 7.89519 0.03803 -32.43901 16.5559 -0.98546 44.37652 -119.28413 20.72282 -2.87624 36.36354 -0.99557 -9.60203 -21.7221 -7.86065 -4.12576 -2.8844 35.68364 12.06226 2.81078 -26.55078 -9.7111 5.18655 3.57925
-0.00067 -0.00168 -0.01726 171.94647 -31.91364 -2.38109 47.2078 3.24834 -6.85771 -11.01676 -1.67119 -0.62537 -25.60354 -10.01902 -1.93417 36.63049 92.20496 7.67153 0.00025 -32.78085 16.92946 -0.86914 44.79685 -116.5487 19.8994 -2.49093 36.46791 -0.70284 -9.62472 -21.74879 -7.83606 -4.12985 -2.88359 35.77277 11.97556 1.10969 -26.50135 -9.97322 5.27625 3.64812
-0.0003 -0.00187 -0.02063 171.95058 -31.99053 -2.37948 46.98897 3.20851 -6.97653 -11.29425 -1.60695 -0.6345 -25.92208 -9.72819 -2.01077 37.21396 91.79691 7.4278 -0.05571 -33.10897 17.50426 -1.04459 45.43875 -111.93345 18.54372 -1.83337 36.52498 -0.3614 -9.5595 -21.74685 -7.81953 -4.14788 -2.88989 35.83025 11.83491 -0.95592 -26.42973 -10.29154 5.38467 3.73085
